<?xml version="1.0" encoding="UTF-8"?>
<svg version="1.1" xmlns="http://www.w3.org/2000/svg" width="1080" height="810">
<path d="M0 0 C356.4 0 712.8 0 1080 0 C1080 267.3 1080 534.6 1080 810 C723.6 810 367.2 810 0 810 C0 542.7 0 275.4 0 0 Z " fill="#FEFEFE" transform="translate(0,0)"/>
<path d="M0 0 C1.57313779 1.34179399 3.13602075 2.69572066 4.6875 4.0625 C5.44546875 4.68898437 6.2034375 5.31546875 6.984375 5.9609375 C33.55323065 28.40703969 47.64290896 63.2547032 55.6875 96.0625 C56.35042863 98.73787366 57.01537915 101.41273529 57.68115234 104.08740234 C58.10098394 105.77484613 58.51928639 107.46267111 58.93603516 109.15087891 C60.06102545 113.67889696 61.28094602 118.15588222 62.625 122.625 C64.81472624 130.15001162 66.45459464 137.7816003 68.12475586 145.4362793 C69.65886608 152.45711182 71.23237036 159.46592895 72.86328125 166.46484375 C73.14702858 167.68253952 73.14702858 167.68253952 73.43650818 168.92483521 C73.8244228 170.58889688 74.21237786 172.25294913 74.60037231 173.91699219 C78.31069065 189.84519075 81.79763741 205.79859213 85.03320312 221.83105469 C86.06621085 226.93287938 87.12581466 232.02907902 88.1875 237.125 C88.38907715 238.09743652 88.5906543 239.06987305 88.79833984 240.07177734 C89.86328486 245.19043854 90.95553901 250.30162473 92.0859375 255.40625 C95.00080646 268.62427651 97.66063359 281.87135035 100.08453369 295.18746948 C100.40048049 296.92267542 100.7185989 298.6574875 101.03900146 300.39187622 C101.48938045 302.83806331 101.92979407 305.28583656 102.3671875 307.734375 C102.50125 308.45727219 102.6353125 309.18016937 102.7734375 309.92497253 C103.61086455 314.70606354 104.00615199 319.20647827 103.6875 324.0625 C101.6266051 326.16203668 100.14057811 327.34032714 97.6875 328.8125 C96.3876454 329.66411168 95.08953164 330.51838509 93.79296875 331.375 C93.11411621 331.81328125 92.43526367 332.2515625 91.73583984 332.703125 C88.38181063 334.92901709 85.19985908 337.37256229 82 339.8125 C80.64923647 340.83178883 79.29765488 341.84999434 77.9453125 342.8671875 C77.2534082 343.38764648 76.56150391 343.90810547 75.84863281 344.44433594 C69.63363639 349.09786015 63.3662556 353.68133095 57.11083984 358.28027344 C53.13427482 361.20480746 49.16103729 364.13385433 45.1875 367.0625 C43.60418304 368.22918888 42.02084969 369.39585553 40.4375 370.5625 C39.261875 371.42875 39.261875 371.42875 38.0625 372.3125 C30.9375 377.5625 30.9375 377.5625 28.56176758 379.31298828 C26.98081017 380.47793849 25.39991808 381.64297734 23.8190918 382.80810547 C19.82494172 385.7517698 15.8296157 388.69381346 11.83203125 391.6328125 C3.7744571 397.55902832 -4.26238009 403.50988934 -12.25463867 409.52392578 C-18.22051566 414.00741767 -24.23043797 418.42999554 -30.24389648 422.84936523 C-35.311279 426.577089 -40.352114 430.33759964 -45.375 434.125 C-50.86440258 438.26273376 -56.41245136 442.30847706 -62 446.3125 C-68.67058397 451.0974474 -75.23265898 456.00851589 -81.75 461 C-91.51501932 468.47835346 -101.37414742 475.81631411 -111.3125 483.0625 C-112.05564453 483.60471191 -112.79878906 484.14692383 -113.56445312 484.70556641 C-236.28137815 574.1128449 -236.28137815 574.1128449 -304.27832031 588.62304688 C-306.24398636 589.04769869 -308.19676915 589.53068908 -310.1484375 590.015625 C-319.7166835 592.21886331 -329.34530913 592.37563061 -339.125 592.4375 C-340.43629883 592.45143799 -341.74759766 592.46537598 -343.09863281 592.47973633 C-358.60464636 592.40418817 -370.66075946 589.181318 -381.98828125 578.4609375 C-396.31725946 563.67439528 -396.81344704 542.95303965 -396.5703125 523.47265625 C-396.0876228 505.08592777 -391.33740524 487.51350738 -386.9375 469.75 C-386.59191544 468.35309937 -386.59191544 468.35309937 -386.23934937 466.92797852 C-383.05548186 454.14348909 -379.41647252 441.58019681 -375.3125 429.0625 C-374.8490597 427.63128139 -374.38615863 426.19988804 -373.92382812 424.76831055 C-364.31972807 395.11707543 -354.23958937 365.45388369 -341.3125 337.0625 C-340.96300293 336.28664551 -340.61350586 335.51079102 -340.25341797 334.71142578 C-335.18013617 323.50204322 -329.5001168 312.68783337 -323.54296875 301.92578125 C-320.70781728 296.80273453 -317.94503585 291.64354448 -315.19189453 286.47607422 C-309.5045842 275.81533527 -303.62448057 265.29893116 -297.49047852 254.88891602 C-293.53642763 248.17845931 -289.68068964 241.42054184 -285.875 234.625 C-273.95653316 213.41767328 -261.13219885 192.73318311 -248.3125 172.0625 C-247.80187012 171.2365332 -247.29124023 170.41056641 -246.76513672 169.55957031 C-233.37486925 147.93513699 -219.24791864 126.65172062 -204.3125 106.0625 C-203.76964355 105.31000977 -203.22678711 104.55751953 -202.66748047 103.78222656 C-195.00121478 93.17337565 -187.06924345 82.85159007 -178.71875 72.77294922 C-177.4830591 71.26995435 -176.27082092 69.74774186 -175.0625 68.22265625 C-170.38746921 62.33459663 -165.3830392 56.80035487 -160.25 51.3125 C-159.25842896 50.24817749 -159.25842896 50.24817749 -158.24682617 49.16235352 C-153.83431928 44.4927649 -149.20500043 40.22176855 -144.3125 36.0625 C-143.72251221 35.54510254 -143.13252441 35.02770508 -142.5246582 34.49462891 C-106.13642227 2.59634149 -45.98360432 -36.10459196 0 0 Z " fill="#FEFEFE" transform="translate(493.3125,127.9375)"/>
<path d="M0 0 C1.90749023 -0.01836914 1.90749023 -0.01836914 3.85351562 -0.03710938 C10.71209808 -0.04777591 16.96749081 0.26209673 23.5625 2.1875 C24.54476563 2.44789062 25.52703125 2.70828125 26.5390625 2.9765625 C62.5714076 14.34960358 83.58474256 44.40375336 100.30102539 76.49243164 C116.85186927 109.22399135 128.63371251 144.7488531 138.01556396 180.12805176 C138.61301096 182.37769538 139.21593038 184.62583998 139.81884766 186.87402344 C146.57581737 212.14875507 152.41305165 237.53727823 157.55566406 263.18701172 C158.3471254 267.13151618 159.15643027 271.07196742 159.97602844 275.01071167 C164.33591951 295.96828028 167.97075394 317.01478592 171.40158081 338.1428833 C172.34870702 343.95114681 173.3656109 349.74414074 174.42016602 355.53393555 C176.10343832 364.77803173 177.19946088 373.79489893 177.5625 383.1875 C178.29662109 383.17178955 179.03074219 383.1560791 179.78710938 383.13989258 C213.73109547 382.51021782 240.86906932 390.1707457 268.5625 410.1875 C269.17158203 410.62288086 269.78066406 411.05826172 270.40820312 411.50683594 C279.02339476 417.6902518 287.07168083 424.21769184 294.75390625 431.52734375 C296.95714191 433.6141358 299.18230897 435.60740757 301.5 437.5625 C309.73928942 444.69737403 317.552683 452.61723145 324.59375 460.93359375 C327.50095041 464.26187675 330.53812864 467.46583597 333.5625 470.6875 C338.32804829 475.7744601 343.03752151 480.88403058 347.5625 486.1875 C348.44896428 487.22027056 349.33571035 488.25279928 350.22265625 489.28515625 C352.81082511 492.29950656 355.39453557 495.3176492 357.97753906 498.33642578 C359.52261515 500.14091852 361.06952979 501.94381496 362.6171875 503.74609375 C379.7636576 523.71606775 379.7636576 523.71606775 386.9375 532.5625 C391.10005978 537.6799122 395.41412806 542.65411908 399.75195312 547.62255859 C403.0587425 551.41992629 406.28013812 555.2650436 409.4375 559.1875 C412.89956992 563.46869182 416.55596977 567.41285898 420.5625 571.1875 C424.2163776 569.5606545 427.15845747 567.32058374 430.3125 564.875 C430.87541748 564.43913574 431.43833496 564.00327148 432.01831055 563.55419922 C436.52765855 560.04289728 440.95379418 556.43368325 445.375 552.8125 C452.63297961 546.87431175 460.05959347 541.19919781 467.60546875 535.6328125 C469.53319687 534.20914103 471.45452114 532.77717959 473.375 531.34375 C491.90378522 517.5621084 511.38308791 505.99916956 531.75 495.125 C532.58611816 494.6719751 533.42223633 494.2189502 534.28369141 493.75219727 C542.19107851 489.59178495 549.90205707 486.76015218 558.9375 486.75 C560.68160156 486.72099609 560.68160156 486.72099609 562.4609375 486.69140625 C566.17151509 487.28491173 567.28525766 488.26343531 569.5625 491.1875 C573.95219141 500.40585197 571.55778903 512.66888851 568.68652344 522.04931641 C567.62937376 524.96080225 566.49538596 527.82479403 565.3125 530.6875 C564.87776367 531.75282959 564.44302734 532.81815918 563.99511719 533.91577148 C555.36705648 554.61259515 544.75614027 574.30330066 533.18798828 593.48779297 C531.64064339 596.05771484 530.11313981 598.63842928 528.58984375 601.22265625 C523.14305721 610.39350718 517.35198898 618.95107075 510.5625 627.1875 C509.85867188 628.07953125 509.15484375 628.9715625 508.4296875 629.890625 C498.70464649 641.58938282 485.54065566 648.67208455 470.5625 651.1875 C452.12137098 652.85530237 436.05325569 645.17973844 421.9375 633.875 C419.00856395 631.38865873 416.1630328 628.82837503 413.35546875 626.20703125 C412.81680176 625.70534424 412.27813477 625.20365723 411.72314453 624.68676758 C410.6811252 623.70921782 409.64651516 622.72369118 408.62060547 621.72924805 C405.12942901 618.23655496 405.12942901 618.23655496 400.5625 617.1875 C398.10556841 618.65517833 398.10556841 618.65517833 395.5625 620.875 C364.45599656 645.61250139 324.46328089 661.53460476 284.5625 659.1875 C268.42819479 657.25419545 256.52016246 648.42771853 245.5625 637.1875 C245.07072266 636.69540039 244.57894531 636.20330078 244.07226562 635.69628906 C229.87949047 621.43719253 218.31939656 604.95651256 208.73095703 587.32177734 C207.67969585 585.40156731 206.59670075 583.50546837 205.49609375 581.61328125 C183.81784409 543.20555408 173.26885713 497.87495387 164.125 455.125 C163.96104736 454.36396973 163.79709473 453.60293945 163.62817383 452.81884766 C162.93972436 449.50243762 162.5625 446.59511762 162.5625 443.1875 C148.52026011 451.58128834 135.66489182 461.83153318 122.61132812 471.65600586 C117.55978827 475.45402933 112.47094478 479.1993563 107.375 482.9375 C100.54814851 487.94905493 93.78803852 493.04087174 87.0625 498.1875 C79.55679352 503.93114134 71.99562533 509.58955774 64.375 515.1796875 C59.41451672 518.81903704 54.47778712 522.48735889 49.5625 526.1875 C42.9549491 531.15997893 36.30360763 536.07088639 29.63989258 540.96777344 C24.48555336 544.75925443 19.35935888 548.58568558 14.25 552.4375 C8.90649461 556.46203471 3.51043246 560.3978012 -1.94750977 564.26538086 C-6.90409669 567.78557762 -11.79897973 571.38603791 -16.6875 575 C-30.10691265 584.91360958 -43.63385486 594.66992436 -57.28515625 604.26171875 C-59.90720716 606.10484671 -62.51947935 607.9601805 -65.12109375 609.83203125 C-107.04449193 639.89577196 -150.45773652 668.12722917 -199.4375 685.1875 C-200.28296387 685.48527344 -201.12842773 685.78304687 -201.99951172 686.08984375 C-217.83819204 691.60558077 -234.60980601 695.71106472 -251.4375 696.1875 C-252.67959229 696.23414795 -252.67959229 696.23414795 -253.94677734 696.28173828 C-275.0461073 697.00206195 -293.32294424 694.29875439 -312.4375 685.1875 C-313.44167969 684.71441406 -314.44585937 684.24132812 -315.48046875 683.75390625 C-344.32970442 669.05869674 -363.17325005 641.49531372 -373.06201172 611.40112305 C-377.59368404 596.78363595 -380.14484562 581.4878368 -380.4375 566.1875 C-380.46328125 565.11967285 -380.4890625 564.0518457 -380.515625 562.95166016 C-380.85516253 547.08464691 -380.69591379 531.75162544 -377.4375 516.1875 C-377.26057617 515.33881348 -377.08365234 514.49012695 -376.90136719 513.61572266 C-375.72584535 508.08833373 -374.44815441 502.58890685 -373.12890625 497.09423828 C-372.42090473 494.1177319 -371.73966994 491.13600425 -371.0625 488.15234375 C-356.31878153 423.90568901 -328.40245501 362.57912377 -296.4375 305.1875 C-295.93669922 304.28241699 -295.43589844 303.37733398 -294.91992188 302.44482422 C-287.8874199 289.74725121 -280.52611796 277.27011375 -272.95532227 264.88793945 C-267.96044887 256.71679578 -263.05061091 248.50018272 -258.1875 240.25 C-235.59289396 202.00089432 -210.95353764 165.05902406 -182.0390625 131.2578125 C-179.69492299 128.51015955 -177.43866684 125.69949772 -175.1875 122.875 C-170.69377715 117.34301628 -165.83890723 112.18055161 -160.92871094 107.02026367 C-158.01117828 103.95159757 -155.14936322 100.86986358 -152.41015625 97.640625 C-147.09602252 91.51908291 -141.26942244 85.87099662 -135.53149414 80.15112305 C-133.5048702 78.12985732 -131.48364453 76.10330426 -129.46289062 74.07617188 C-123.28947233 67.8995681 -117.11144968 61.827559 -110.4375 56.1875 C-108.66179779 54.56782183 -106.89041693 52.94338282 -105.125 51.3125 C-100.6708062 47.25545653 -96.12236226 43.36695794 -91.42578125 39.59375 C-89.27737812 37.86379401 -87.1547297 36.11708392 -85.04296875 34.34375 C-60.26379359 13.73353534 -32.56288219 0.01645421 0 0 Z M-98.2890625 111.2265625 C-100.25548814 113.02137281 -102.27108427 114.72937664 -104.3125 116.4375 C-121.06029489 131.10856832 -134.54480736 149.9619206 -147.671875 167.79101562 C-149.27379766 169.96530667 -150.88602511 172.1315291 -152.5 174.296875 C-167.64826313 194.79158394 -181.65690792 216.30305476 -195.06445312 237.96972656 C-196.54191724 240.35615687 -198.02845635 242.73679395 -199.515625 245.1171875 C-212.26562894 265.56878342 -224.58150873 286.27952483 -236.66503906 307.13085938 C-238.4682283 310.24049151 -240.27698489 313.34684274 -242.0859375 316.453125 C-254.85206155 338.42234334 -267.19958891 360.60362588 -278.83984375 383.19140625 C-280.373383 386.16232588 -281.93148477 389.11101841 -283.56640625 392.02734375 C-316.02404401 450.31994974 -361.21214554 559.9124761 -344.40234375 627.07421875 C-340.32875876 640.21853956 -333.712086 651.14506667 -321.4375 658.1875 C-300.87864692 667.32150473 -273.73247042 664.71323371 -252.4375 659.1875 C-251.7578418 659.0215332 -251.07818359 658.85556641 -250.37792969 658.68457031 C-188.89625435 643.48855682 -133.27768101 605.23048223 -82.4375 569.1875 C-81.80730957 568.74245117 -81.17711914 568.29740234 -80.52783203 567.83886719 C-63.27230147 555.65122848 -46.37984415 542.95641992 -29.51953125 530.23046875 C-22.65096676 525.05354329 -15.74101167 519.94805727 -8.75 514.9375 C-1.13828062 509.47943294 6.31358561 503.83033703 13.74487305 498.12988281 C20.00052909 493.34388415 26.34347265 488.70203198 32.75170898 484.12329102 C38.63165565 479.90386983 44.38578836 475.53337996 50.125 471.125 C57.0104049 465.83852802 63.9746985 460.72242024 71.10302734 455.76977539 C77.87642557 451.03318349 84.41658745 446.00477306 90.97216797 440.97314453 C96.35449634 436.84909988 101.78219298 432.81891272 107.3215332 428.90917969 C119.15772811 420.54685846 130.76339719 411.84812885 142.31201172 403.09423828 C142.91674316 402.63774902 143.52147461 402.18125977 144.14453125 401.7109375 C145.00038818 401.05496582 145.00038818 401.05496582 145.87353516 400.38574219 C147.5625 399.1875 147.5625 399.1875 151.01171875 397.3515625 C153.9509106 395.37443591 153.9509106 395.37443591 153.84545898 391.7800293 C153.66204993 386.28216598 152.60752002 380.93607239 151.5859375 375.54296875 C151.38006516 374.4278038 151.17419281 373.31263885 150.96208191 372.16368103 C150.29504387 368.56594514 149.61684936 364.97042981 148.9375 361.375 C148.47641077 358.90805351 148.01539198 356.44109386 147.55444336 353.97412109 C144.89853667 339.83862143 142.12010928 325.75734916 138.81640625 311.7578125 C137.79300228 307.37519282 136.94820763 302.96942578 136.140625 298.54296875 C134.72843155 290.83279544 133.03903061 283.20365063 131.26126099 275.57043457 C130.36801516 271.73469739 129.4856135 267.89645851 128.6015625 264.05859375 C128.42506668 263.29370636 128.24857086 262.52881897 128.06672668 261.74075317 C126.54749211 255.14810609 125.07937376 248.54474667 123.625 241.9375 C121.31874008 231.51269049 118.97005809 221.09772781 116.5866394 210.69030762 C116.20377377 209.01607958 115.82230078 207.34153229 115.44241333 205.66662598 C113.11592663 195.41764605 110.53783453 185.28025333 107.67602539 175.16772461 C106.35098585 170.47300153 105.19323598 165.744677 104.0625 161 C100.48550258 146.51224759 95.62752837 133.32895652 88.5625 120.1875 C88.19576172 119.49946289 87.82902344 118.81142578 87.45117188 118.10253906 C82.74767401 109.32949305 77.7850328 100.99035859 71.5625 93.1875 C71.12566895 92.63852051 70.68883789 92.08954102 70.23876953 91.52392578 C56.35956752 74.25234758 39.37337141 59.78186949 16.5625 57.1875 C-28.15525715 54.82196249 -66.71588727 82.17084975 -98.2890625 111.2265625 Z " fill="#AD9601" transform="translate(443.4375,56.8125)"/>
<path d="M0 0 C13.14421037 7.83419564 25.69106685 16.76866694 37.1875 26.8671875 C39.94047362 29.26855851 42.76254306 31.54367759 45.625 33.8125 C54.61556769 41.15414261 62.50265454 49.39322664 69.7265625 58.46875 C72.39614882 61.79010823 75.15545251 65.02286031 77.9375 68.25 C81.83262094 72.77499651 85.71184804 77.31208872 89.5625 81.875 C96.97224667 90.6474587 104.44400049 99.3661122 111.97363281 108.03588867 C118.39647275 115.43203005 124.81406678 122.83038425 131.0625 130.375 C131.82651123 131.29539062 131.82651123 131.29539062 132.60595703 132.234375 C134.16626296 134.1257714 135.71035326 136.02926512 137.25 137.9375 C137.73227051 138.52152588 138.21454102 139.10555176 138.71142578 139.70727539 C141.30663815 142.96532803 142.0625 144.05930743 142.0625 148.375 C117.23681922 168.92634618 83.8933433 172.28820394 53.0625 170.375 C34.37323699 168.47115469 14.54223511 157.04212696 1.0625 144.375 C0.29421875 143.73304688 -0.4740625 143.09109375 -1.265625 142.4296875 C-39.64898535 110.18244258 -55.31516602 51.5693121 -64.875 4.6875 C-65.08672852 3.65415527 -65.29845703 2.62081055 -65.51660156 1.55615234 C-66.52080407 -3.59915306 -67.1798947 -8.37311492 -66.9375 -13.625 C-45.31180142 -22.2614611 -18.90888434 -10.3543362 0 0 Z " fill="#FEFEFE" transform="translate(695.9375,507.625)"/>
<path d="M0 0 C3.13811228 2.26392386 3.91380728 3.51810434 4.6015625 7.36328125 C4.61316406 9.31814453 4.61316406 9.31814453 4.625 11.3125 C4.65851563 12.58738281 4.69203125 13.86226562 4.7265625 15.17578125 C3.5380016 28.27585199 -5.12880124 41.75325911 -10.875 53.375 C-12.03283705 55.72769371 -13.18906556 58.08116851 -14.34440613 60.43508911 C-15.10645483 61.98759328 -15.86955879 63.53957995 -16.63374329 65.09103394 C-18.52580988 68.94314587 -20.38657924 72.8062177 -22.19213867 76.69970703 C-22.54474762 77.45933746 -22.89735657 78.2189679 -23.26065063 79.00161743 C-23.91815819 80.42452951 -24.57128213 81.84948011 -25.21884155 83.27694702 C-31.54040835 96.96959563 -40.99845129 109.87441923 -55.5 115.3125 C-62.88830253 116.76377371 -69.24872344 116.4304376 -76 113 C-79.90908601 110.26246235 -83.44860466 107.18285431 -87 104 C-87.75748535 103.32493408 -87.75748535 103.32493408 -88.53027344 102.63623047 C-107.94320983 85.288889 -107.94320983 85.288889 -110 80 C-108.67381835 76.15163238 -106.04927958 73.9736049 -103.0625 71.3125 C-102.57523438 70.87679687 -102.08796875 70.44109375 -101.5859375 69.9921875 C-97.41430338 66.29240917 -93.0936709 62.78536472 -88.75390625 59.28515625 C-85.89917867 56.91633975 -83.1656079 54.45073583 -80.4375 51.9375 C-76.33584799 48.17138511 -72.14568358 44.61233665 -67.765625 41.17578125 C-65.7182061 39.56502938 -63.69010057 37.93950635 -61.671875 36.29296875 C-14.32958222 -2.22355586 -14.32958222 -2.22355586 0 0 Z " fill="#FEFEFD" transform="translate(988,568)"/>
</svg>
